# xmcd
#
# Track frame offsets:
#	150
#	17402
#	39235
#
# Disc length: 811
#
# Revision: 1
# Processed by: cddbd v1.5.1PL0 Copyright (c) Steve Scherf et al.
# Submitted via: CDex 1.51
# Normalized: r0:TRMNUM
#
DISCID=13032903
DTITLE=MANU DIBANGO - Biko
DYEAR=1994
DGENRE=Jazz
TTITLE0=Biko (Radio Edit)
TTITLE1=Biko (Remix)
TTITLE2=Wakafrika
EXTD=YEAR: 1994
EXTT0=
EXTT1=
EXTT2=
PLAYORDER=
